<?xml version="1.0" encoding="UTF-8"?>
<!DOCTYPE svg PUBLIC "-//W3C//DTD SVG 1.1//EN" "http://www.w3.org/Graphics/SVG/1.1/DTD/svg11.dtd">
<!-- Creator: CorelDRAW 2018 (64-Bit) -->
<svg xmlns="http://www.w3.org/2000/svg" xml:space="preserve" width="8.26772in" height="11.6929in" version="1.1" style="shape-rendering:geometricPrecision; text-rendering:geometricPrecision; image-rendering:optimizeQuality; fill-rule:evenodd; clip-rule:evenodd"
viewBox="0 0 8267.72 11692.91"
 xmlns:xlink="http://www.w3.org/1999/xlink">
 <defs>
  <style type="text/css">
   <![CDATA[
    .fil3 {fill:none}
    .fil1 {fill:#F58634}
    .fil2 {fill:#00A859}
    .fil0 {fill:#1D5DA9}
   ]]>
  </style>
 </defs>
 <g id="Layer_x0020_1">
  <metadata id="CorelCorpID_0Corel-Layer"/>
  <g id="_3081751047088">
   <polygon class="fil0" points="-6604.74,5954.79 -6563.55,6026.13 -6522.36,6097.48 -6604.74,6097.48 -6687.12,6097.48 -6645.93,6026.13 "/>
   <polygon class="fil1" points="-6687.12,5995.21 -6609.87,5861.41 -6609.87,5728.2 -6644.37,5728.2 -6772.13,5949.48 -6900.7,6172.18 -6885.41,6198.67 -6764.17,6128.67 "/>
   <polygon class="fil2" points="-6591.64,5861.5 -6514.44,5995.21 -6437.57,6128.35 -6318.32,6197.2 -6302.63,6170.04 -6429.97,5949.48 -6557.73,5728.2 -6591.64,5728.2 "/>
   <polygon class="fil0" points="-6445.64,6144.75 -6600.78,6144.75 -6755.56,6144.75 -6876.3,6214.46 -6858.21,6245.79 -6601.05,6245.79 -6346.37,6245.79 -6327.44,6212.99 "/>
   <path class="fil0" d="M-6750.95 6339.32l-51.22 121.17 42.35 0 10.33 -30.81 58.98 0 10.48 30.81 47.07 0 -48.47 -120.57c-6.55,-16.3 -14.67,-28.01 -34.83,-28.01 -19.91,0 -27.93,11.43 -34.69,27.42zm30.65 15.3c2.93,0 4.57,1.75 5.69,5.1l7.72 22.24 7.72 22.26 -41.52 0 8.29 -24.87 6.38 -19.14c1.61,-4.37 2.6,-5.59 5.72,-5.59z"/>
   <path class="fil0" d="M-6495.63 6341.94l-22.36 61.61 -20.07 -62.22c-5.56,-17.2 -17.99,-29.15 -36.89,-29.77l-1.3 -0.02 -1.3 0.02c-26.15,0.85 -37.74,20.74 -37.74,44.35l0 104.57 37.43 0 0 -70.26 0 -17.21c-0.17,-4.6 1.72,-7.22 5.52,-7.22 3.17,0 4.37,2.02 5.72,5.72l5.02 15.92 23.01 73.05 33.55 0 26.24 -76.2 5.54 -16.07c0.81,-2.31 2.77,-5.04 5.68,-5.04 3.87,0 5.6,2.07 5.48,7.36l0 19.7 0 70.25 43.09 0 0 -103c0,-24.34 -10.83,-45.22 -38.64,-45.22 -20.23,0 -31.59,12.13 -37.97,29.69z"/>
   <polyline class="fil3" points="-6879.8,6429.53 -6804.48,6429.53 -6818.87,6461.58 "/>
   <polyline class="fil3" points="-6879.8,6462.93 -6826.5,6462.89 -6819.47,6462.89 -6818.69,6461.16 "/>
   <g>
    <path class="fil0" d="M-6879.09 6462.93l0.06 0 52.53 -0.04 7.03 0 0.6 -1.31 0.19 -0.42 14.2 -31.63 -12 0 -63.31 0c-23.91,0 -43.29,-19.38 -43.29,-43.29 0,-23.91 19.38,-43.29 43.29,-43.29 15.06,0 28.33,7.69 36.08,19.36l28.38 -17.63c-13.65,-21.14 -37.42,-35.13 -64.46,-35.13 -42.35,0 -76.69,34.33 -76.69,76.69 0,42.35 34.33,76.69 76.69,76.68l0.7 0zm0.06 0l-0.06 0 0.06 0z"/>
   </g>
   <path class="fil0" d="M-6386.15 6429.74c13,18.89 34.22,31.68 58.5,33.19l9.7 0c40.17,-2.51 71.98,-35.88 71.98,-76.69 0,-42.44 -34.4,-76.84 -76.83,-76.84 -42.44,0 -76.84,34.4 -76.84,76.84 0,16.15 4.98,31.13 13.49,43.5zm20 -43.5c0,-23.94 19.41,-43.35 43.35,-43.35 23.94,0 43.35,19.41 43.35,43.35 0,23.45 -18.63,42.56 -41.89,43.32 -0.48,0.02 -0.97,0.02 -1.45,0.02 -0.41,0 -0.81,-0 -1.22,-0.02 -23.38,-0.64 -42.13,-19.8 -42.13,-43.33z"/>
  </g>
 </g>
</svg>
